<mxfile host="Electron" agent="Mozilla/5.0 (Windows NT 10.0; Win64; x64) AppleWebKit/537.36 (KHTML, like Gecko) draw.io/25.0.2 Chrome/128.0.6613.186 Electron/32.2.5 Safari/537.36" version="25.0.2">
  <diagram name="Page-1" id="RaXDIYB4RA_Cb1EncW4o">
    <mxGraphModel dx="1195" dy="803" grid="1" gridSize="10" guides="1" tooltips="1" connect="1" arrows="1" fold="1" page="1" pageScale="1" pageWidth="3300" pageHeight="4681" math="0" shadow="0">
      <root>
        <mxCell id="0" />
        <mxCell id="1" parent="0" />
        <mxCell id="tJPU9x7gonIQyWj_EVGw-1" value="&lt;h2 style=&quot;text-wrap: wrap;&quot;&gt;Employee &lt;/h2&gt;" style="text;html=1;align=center;verticalAlign=middle;resizable=0;points=[];autosize=1;strokeColor=none;fillColor=none;" parent="1" vertex="1">
          <mxGeometry x="180" y="30" width="110" height="60" as="geometry" />
        </mxCell>
        <mxCell id="tJPU9x7gonIQyWj_EVGw-2" value="" style="shape=table;startSize=0;container=1;collapsible=0;childLayout=tableLayout;" parent="1" vertex="1">
          <mxGeometry x="567.5" y="137" width="98.98" height="40" as="geometry" />
        </mxCell>
        <mxCell id="tJPU9x7gonIQyWj_EVGw-3" value="" style="shape=tableRow;horizontal=0;startSize=0;swimlaneHead=0;swimlaneBody=0;strokeColor=inherit;top=0;left=0;bottom=0;right=0;collapsible=0;dropTarget=0;fillColor=none;points=[[0,0.5],[1,0.5]];portConstraint=eastwest;" parent="tJPU9x7gonIQyWj_EVGw-2" vertex="1">
          <mxGeometry width="98.98" height="40" as="geometry" />
        </mxCell>
        <mxCell id="tJPU9x7gonIQyWj_EVGw-4" value="Address" style="shape=partialRectangle;html=1;whiteSpace=wrap;connectable=0;strokeColor=inherit;overflow=hidden;fillColor=none;top=0;left=0;bottom=0;right=0;pointerEvents=1;" parent="tJPU9x7gonIQyWj_EVGw-3" vertex="1">
          <mxGeometry width="99" height="40" as="geometry">
            <mxRectangle width="99" height="40" as="alternateBounds" />
          </mxGeometry>
        </mxCell>
        <mxCell id="tJPU9x7gonIQyWj_EVGw-6" value="" style="shape=table;startSize=0;container=1;collapsible=0;childLayout=tableLayout;" parent="1" vertex="1">
          <mxGeometry x="267.5" y="137" width="300" height="40" as="geometry" />
        </mxCell>
        <mxCell id="tJPU9x7gonIQyWj_EVGw-7" value="" style="shape=tableRow;horizontal=0;startSize=0;swimlaneHead=0;swimlaneBody=0;strokeColor=inherit;top=0;left=0;bottom=0;right=0;collapsible=0;dropTarget=0;fillColor=none;points=[[0,0.5],[1,0.5]];portConstraint=eastwest;" parent="tJPU9x7gonIQyWj_EVGw-6" vertex="1">
          <mxGeometry width="300" height="40" as="geometry" />
        </mxCell>
        <mxCell id="tJPU9x7gonIQyWj_EVGw-8" value="Emp_Id" style="shape=partialRectangle;html=1;whiteSpace=wrap;connectable=0;strokeColor=inherit;overflow=hidden;fillColor=none;top=0;left=0;bottom=0;right=0;pointerEvents=1;" parent="tJPU9x7gonIQyWj_EVGw-7" vertex="1">
          <mxGeometry width="75" height="40" as="geometry">
            <mxRectangle width="75" height="40" as="alternateBounds" />
          </mxGeometry>
        </mxCell>
        <mxCell id="tJPU9x7gonIQyWj_EVGw-9" value="Fname" style="shape=partialRectangle;html=1;whiteSpace=wrap;connectable=0;strokeColor=inherit;overflow=hidden;fillColor=none;top=0;left=0;bottom=0;right=0;pointerEvents=1;" parent="tJPU9x7gonIQyWj_EVGw-7" vertex="1">
          <mxGeometry x="75" width="45" height="40" as="geometry">
            <mxRectangle width="45" height="40" as="alternateBounds" />
          </mxGeometry>
        </mxCell>
        <mxCell id="tJPU9x7gonIQyWj_EVGw-10" value="Lname" style="shape=partialRectangle;html=1;whiteSpace=wrap;connectable=0;strokeColor=inherit;overflow=hidden;fillColor=none;top=0;left=0;bottom=0;right=0;pointerEvents=1;" parent="tJPU9x7gonIQyWj_EVGw-7" vertex="1">
          <mxGeometry x="120" width="60" height="40" as="geometry">
            <mxRectangle width="60" height="40" as="alternateBounds" />
          </mxGeometry>
        </mxCell>
        <mxCell id="tJPU9x7gonIQyWj_EVGw-11" value="&lt;br&gt;Salary&lt;div&gt;&lt;br/&gt;&lt;/div&gt;" style="shape=partialRectangle;html=1;whiteSpace=wrap;connectable=0;strokeColor=inherit;overflow=hidden;fillColor=none;top=0;left=0;bottom=0;right=0;pointerEvents=1;" parent="tJPU9x7gonIQyWj_EVGw-7" vertex="1">
          <mxGeometry x="180" width="60" height="40" as="geometry">
            <mxRectangle width="60" height="40" as="alternateBounds" />
          </mxGeometry>
        </mxCell>
        <mxCell id="tJPU9x7gonIQyWj_EVGw-12" value="Bonus" style="shape=partialRectangle;html=1;whiteSpace=wrap;connectable=0;strokeColor=inherit;overflow=hidden;fillColor=none;top=0;left=0;bottom=0;right=0;pointerEvents=1;" parent="tJPU9x7gonIQyWj_EVGw-7" vertex="1">
          <mxGeometry x="240" width="60" height="40" as="geometry">
            <mxRectangle width="60" height="40" as="alternateBounds" />
          </mxGeometry>
        </mxCell>
        <mxCell id="tJPU9x7gonIQyWj_EVGw-19" value="" style="shape=table;startSize=0;container=1;collapsible=0;childLayout=tableLayout;" parent="1" vertex="1">
          <mxGeometry x="666.48" y="137" width="358.03999999999996" height="40" as="geometry" />
        </mxCell>
        <mxCell id="tJPU9x7gonIQyWj_EVGw-20" value="" style="shape=tableRow;horizontal=0;startSize=0;swimlaneHead=0;swimlaneBody=0;strokeColor=inherit;top=0;left=0;bottom=0;right=0;collapsible=0;dropTarget=0;fillColor=none;points=[[0,0.5],[1,0.5]];portConstraint=eastwest;" parent="tJPU9x7gonIQyWj_EVGw-19" vertex="1">
          <mxGeometry width="358.03999999999996" height="40" as="geometry" />
        </mxCell>
        <mxCell id="tJPU9x7gonIQyWj_EVGw-21" value="Phone_Number" style="shape=partialRectangle;html=1;whiteSpace=wrap;connectable=0;strokeColor=inherit;overflow=hidden;fillColor=none;top=0;left=0;bottom=0;right=0;pointerEvents=1;" parent="tJPU9x7gonIQyWj_EVGw-20" vertex="1">
          <mxGeometry width="118" height="40" as="geometry">
            <mxRectangle width="118" height="40" as="alternateBounds" />
          </mxGeometry>
        </mxCell>
        <mxCell id="tJPU9x7gonIQyWj_EVGw-22" value="Supervisor_Id" style="shape=partialRectangle;html=1;whiteSpace=wrap;connectable=0;strokeColor=inherit;overflow=hidden;fillColor=none;top=0;left=0;bottom=0;right=0;pointerEvents=1;" parent="tJPU9x7gonIQyWj_EVGw-20" vertex="1">
          <mxGeometry x="118" width="127" height="40" as="geometry">
            <mxRectangle width="127" height="40" as="alternateBounds" />
          </mxGeometry>
        </mxCell>
        <mxCell id="tJPU9x7gonIQyWj_EVGw-23" value="DateOfBirth" style="shape=partialRectangle;html=1;whiteSpace=wrap;connectable=0;strokeColor=inherit;overflow=hidden;fillColor=none;top=0;left=0;bottom=0;right=0;pointerEvents=1;" parent="tJPU9x7gonIQyWj_EVGw-20" vertex="1">
          <mxGeometry x="245" width="113" height="40" as="geometry">
            <mxRectangle width="113" height="40" as="alternateBounds" />
          </mxGeometry>
        </mxCell>
        <mxCell id="tJPU9x7gonIQyWj_EVGw-25" value="" style="endArrow=none;dashed=1;html=1;dashPattern=1 3;strokeWidth=2;rounded=0;" parent="1" edge="1">
          <mxGeometry width="50" height="50" relative="1" as="geometry">
            <mxPoint x="905.5" y="170" as="sourcePoint" />
            <mxPoint x="785.5" y="170" as="targetPoint" />
          </mxGeometry>
        </mxCell>
        <mxCell id="tJPU9x7gonIQyWj_EVGw-26" value="" style="endArrow=none;html=1;rounded=0;exitX=0;exitY=0.5;exitDx=0;exitDy=0;" parent="1" edge="1">
          <mxGeometry width="50" height="50" relative="1" as="geometry">
            <mxPoint x="268.5" y="169" as="sourcePoint" />
            <mxPoint x="343.5" y="169" as="targetPoint" />
          </mxGeometry>
        </mxCell>
        <mxCell id="tJPU9x7gonIQyWj_EVGw-36" value="&lt;h2 style=&quot;text-wrap: wrap;&quot;&gt;Floor &lt;/h2&gt;" style="text;html=1;align=center;verticalAlign=middle;resizable=0;points=[];autosize=1;strokeColor=none;fillColor=none;" parent="1" vertex="1">
          <mxGeometry x="285" y="290" width="70" height="60" as="geometry" />
        </mxCell>
        <mxCell id="tJPU9x7gonIQyWj_EVGw-55" value="" style="shape=table;startSize=0;container=1;collapsible=0;childLayout=tableLayout;" parent="1" vertex="1">
          <mxGeometry x="370" y="390" width="115" height="-10" as="geometry" />
        </mxCell>
        <mxCell id="tJPU9x7gonIQyWj_EVGw-56" value="" style="shape=tableRow;horizontal=0;startSize=0;swimlaneHead=0;swimlaneBody=0;strokeColor=inherit;top=0;left=0;bottom=0;right=0;collapsible=0;dropTarget=0;fillColor=none;points=[[0,0.5],[1,0.5]];portConstraint=eastwest;" parent="tJPU9x7gonIQyWj_EVGw-55" vertex="1" visible="0">
          <mxGeometry width="115" height="40" as="geometry" />
        </mxCell>
        <mxCell id="tJPU9x7gonIQyWj_EVGw-57" value="Manager_Emp_Id" style="shape=partialRectangle;html=1;whiteSpace=wrap;connectable=0;strokeColor=inherit;overflow=hidden;fillColor=none;top=0;left=0;bottom=0;right=0;pointerEvents=1;" parent="tJPU9x7gonIQyWj_EVGw-56" vertex="1">
          <mxGeometry width="115" height="40" as="geometry">
            <mxRectangle width="115" height="40" as="alternateBounds" />
          </mxGeometry>
        </mxCell>
        <mxCell id="tJPU9x7gonIQyWj_EVGw-51" value="" style="shape=table;startSize=0;container=1;collapsible=0;childLayout=tableLayout;" parent="1" vertex="1">
          <mxGeometry x="280" y="390" width="90" height="40" as="geometry" />
        </mxCell>
        <mxCell id="tJPU9x7gonIQyWj_EVGw-52" value="" style="shape=tableRow;horizontal=0;startSize=0;swimlaneHead=0;swimlaneBody=0;strokeColor=inherit;top=0;left=0;bottom=0;right=0;collapsible=0;dropTarget=0;fillColor=none;points=[[0,0.5],[1,0.5]];portConstraint=eastwest;" parent="tJPU9x7gonIQyWj_EVGw-51" vertex="1">
          <mxGeometry width="90" height="40" as="geometry" />
        </mxCell>
        <mxCell id="tJPU9x7gonIQyWj_EVGw-53" value="&#xa;Floor_Number&#xa;&#xa;" style="shape=partialRectangle;html=1;whiteSpace=wrap;connectable=0;strokeColor=inherit;overflow=hidden;fillColor=none;top=0;left=0;bottom=0;right=0;pointerEvents=1;" parent="tJPU9x7gonIQyWj_EVGw-52" vertex="1">
          <mxGeometry width="90" height="40" as="geometry">
            <mxRectangle width="90" height="40" as="alternateBounds" />
          </mxGeometry>
        </mxCell>
        <mxCell id="tJPU9x7gonIQyWj_EVGw-59" value="" style="shape=table;startSize=0;container=1;collapsible=0;childLayout=tableLayout;" parent="1" vertex="1">
          <mxGeometry x="330" y="390" width="115" height="-10" as="geometry" />
        </mxCell>
        <mxCell id="tJPU9x7gonIQyWj_EVGw-60" value="" style="shape=tableRow;horizontal=0;startSize=0;swimlaneHead=0;swimlaneBody=0;strokeColor=inherit;top=0;left=0;bottom=0;right=0;collapsible=0;dropTarget=0;fillColor=none;points=[[0,0.5],[1,0.5]];portConstraint=eastwest;" parent="tJPU9x7gonIQyWj_EVGw-59" vertex="1" visible="0">
          <mxGeometry width="115" height="40" as="geometry" />
        </mxCell>
        <mxCell id="tJPU9x7gonIQyWj_EVGw-61" value="Manager_Emp_Id" style="shape=partialRectangle;html=1;whiteSpace=wrap;connectable=0;strokeColor=inherit;overflow=hidden;fillColor=none;top=0;left=0;bottom=0;right=0;pointerEvents=1;" parent="tJPU9x7gonIQyWj_EVGw-60" vertex="1">
          <mxGeometry width="115" height="40" as="geometry">
            <mxRectangle width="115" height="40" as="alternateBounds" />
          </mxGeometry>
        </mxCell>
        <mxCell id="tJPU9x7gonIQyWj_EVGw-67" value="" style="endArrow=none;html=1;rounded=0;" parent="1" edge="1">
          <mxGeometry width="50" height="50" relative="1" as="geometry">
            <mxPoint x="285" y="424" as="sourcePoint" />
            <mxPoint x="355" y="424" as="targetPoint" />
          </mxGeometry>
        </mxCell>
        <mxCell id="tJPU9x7gonIQyWj_EVGw-68" value="" style="shape=table;startSize=0;container=1;collapsible=0;childLayout=tableLayout;" parent="1" vertex="1">
          <mxGeometry x="365" y="390" width="100" height="40" as="geometry" />
        </mxCell>
        <mxCell id="tJPU9x7gonIQyWj_EVGw-69" value="" style="shape=tableRow;horizontal=0;startSize=0;swimlaneHead=0;swimlaneBody=0;strokeColor=inherit;top=0;left=0;bottom=0;right=0;collapsible=0;dropTarget=0;fillColor=none;points=[[0,0.5],[1,0.5]];portConstraint=eastwest;" parent="tJPU9x7gonIQyWj_EVGw-68" vertex="1">
          <mxGeometry width="100" height="40" as="geometry" />
        </mxCell>
        <mxCell id="tJPU9x7gonIQyWj_EVGw-70" value="Num_Of_Blocks" style="shape=partialRectangle;html=1;whiteSpace=wrap;connectable=0;strokeColor=inherit;overflow=hidden;fillColor=none;top=0;left=0;bottom=0;right=0;pointerEvents=1;" parent="tJPU9x7gonIQyWj_EVGw-69" vertex="1">
          <mxGeometry width="100" height="40" as="geometry">
            <mxRectangle width="100" height="40" as="alternateBounds" />
          </mxGeometry>
        </mxCell>
        <mxCell id="tJPU9x7gonIQyWj_EVGw-91" value="&lt;h2 style=&quot;text-wrap: wrap;&quot;&gt;User &lt;/h2&gt;" style="text;html=1;align=center;verticalAlign=middle;resizable=0;points=[];autosize=1;strokeColor=none;fillColor=none;" parent="1" vertex="1">
          <mxGeometry x="300" y="470" width="60" height="60" as="geometry" />
        </mxCell>
        <mxCell id="tJPU9x7gonIQyWj_EVGw-93" value="&lt;h2 style=&quot;text-wrap: wrap;&quot;&gt;Book &lt;/h2&gt;" style="text;html=1;align=center;verticalAlign=middle;resizable=0;points=[];autosize=1;strokeColor=none;fillColor=none;" parent="1" vertex="1">
          <mxGeometry x="287.5" y="840" width="70" height="60" as="geometry" />
        </mxCell>
        <mxCell id="tJPU9x7gonIQyWj_EVGw-94" value="" style="shape=table;startSize=0;container=1;collapsible=0;childLayout=tableLayout;" parent="1" vertex="1">
          <mxGeometry x="300" y="910" width="275" height="40" as="geometry" />
        </mxCell>
        <mxCell id="tJPU9x7gonIQyWj_EVGw-95" value="" style="shape=tableRow;horizontal=0;startSize=0;swimlaneHead=0;swimlaneBody=0;strokeColor=inherit;top=0;left=0;bottom=0;right=0;collapsible=0;dropTarget=0;fillColor=none;points=[[0,0.5],[1,0.5]];portConstraint=eastwest;" parent="tJPU9x7gonIQyWj_EVGw-94" vertex="1">
          <mxGeometry width="275" height="40" as="geometry" />
        </mxCell>
        <mxCell id="tJPU9x7gonIQyWj_EVGw-96" value="Category_Id" style="shape=partialRectangle;html=1;whiteSpace=wrap;connectable=0;strokeColor=inherit;overflow=hidden;fillColor=none;top=0;left=0;bottom=0;right=0;pointerEvents=1;" parent="tJPU9x7gonIQyWj_EVGw-95" vertex="1">
          <mxGeometry width="85" height="40" as="geometry">
            <mxRectangle width="85" height="40" as="alternateBounds" />
          </mxGeometry>
        </mxCell>
        <mxCell id="tJPU9x7gonIQyWj_EVGw-97" value="Publisher_Id" style="shape=partialRectangle;html=1;whiteSpace=wrap;connectable=0;strokeColor=inherit;overflow=hidden;fillColor=none;top=0;left=0;bottom=0;right=0;pointerEvents=1;" parent="tJPU9x7gonIQyWj_EVGw-95" vertex="1">
          <mxGeometry x="85" width="100" height="40" as="geometry">
            <mxRectangle width="100" height="40" as="alternateBounds" />
          </mxGeometry>
        </mxCell>
        <mxCell id="tJPU9x7gonIQyWj_EVGw-98" value="Book_Id" style="shape=partialRectangle;html=1;whiteSpace=wrap;connectable=0;strokeColor=inherit;overflow=hidden;fillColor=none;top=0;left=0;bottom=0;right=0;pointerEvents=1;" parent="tJPU9x7gonIQyWj_EVGw-95" vertex="1">
          <mxGeometry x="185" width="90" height="40" as="geometry">
            <mxRectangle width="90" height="40" as="alternateBounds" />
          </mxGeometry>
        </mxCell>
        <mxCell id="tJPU9x7gonIQyWj_EVGw-99" value="" style="endArrow=none;dashed=1;html=1;dashPattern=1 3;strokeWidth=2;rounded=0;" parent="1" edge="1">
          <mxGeometry width="50" height="50" relative="1" as="geometry">
            <mxPoint x="308" y="941" as="sourcePoint" />
            <mxPoint x="378" y="941" as="targetPoint" />
          </mxGeometry>
        </mxCell>
        <mxCell id="tJPU9x7gonIQyWj_EVGw-100" value="" style="endArrow=none;dashed=1;html=1;dashPattern=1 3;strokeWidth=2;rounded=0;" parent="1" edge="1">
          <mxGeometry width="50" height="50" relative="1" as="geometry">
            <mxPoint x="402.5" y="942" as="sourcePoint" />
            <mxPoint x="472.5" y="942" as="targetPoint" />
          </mxGeometry>
        </mxCell>
        <mxCell id="tJPU9x7gonIQyWj_EVGw-101" value="" style="endArrow=none;html=1;rounded=0;" parent="1" edge="1">
          <mxGeometry width="50" height="50" relative="1" as="geometry">
            <mxPoint x="498" y="941" as="sourcePoint" />
            <mxPoint x="558" y="941" as="targetPoint" />
          </mxGeometry>
        </mxCell>
        <mxCell id="tJPU9x7gonIQyWj_EVGw-102" value="" style="shape=table;startSize=0;container=1;collapsible=0;childLayout=tableLayout;" parent="1" vertex="1">
          <mxGeometry x="575" y="910" width="60" height="40" as="geometry" />
        </mxCell>
        <mxCell id="tJPU9x7gonIQyWj_EVGw-103" value="" style="shape=tableRow;horizontal=0;startSize=0;swimlaneHead=0;swimlaneBody=0;strokeColor=inherit;top=0;left=0;bottom=0;right=0;collapsible=0;dropTarget=0;fillColor=none;points=[[0,0.5],[1,0.5]];portConstraint=eastwest;" parent="tJPU9x7gonIQyWj_EVGw-102" vertex="1">
          <mxGeometry width="60" height="40" as="geometry" />
        </mxCell>
        <mxCell id="tJPU9x7gonIQyWj_EVGw-104" value="Title" style="shape=partialRectangle;html=1;whiteSpace=wrap;connectable=0;strokeColor=inherit;overflow=hidden;fillColor=none;top=0;left=0;bottom=0;right=0;pointerEvents=1;" parent="tJPU9x7gonIQyWj_EVGw-103" vertex="1">
          <mxGeometry width="60" height="40" as="geometry">
            <mxRectangle width="60" height="40" as="alternateBounds" />
          </mxGeometry>
        </mxCell>
        <mxCell id="tJPU9x7gonIQyWj_EVGw-105" value="&lt;h2 style=&quot;text-wrap: wrap;&quot;&gt;Borrow &lt;/h2&gt;" style="text;html=1;align=center;verticalAlign=middle;resizable=0;points=[];autosize=1;strokeColor=none;fillColor=none;" parent="1" vertex="1">
          <mxGeometry x="290" y="1100" width="90" height="60" as="geometry" />
        </mxCell>
        <mxCell id="tJPU9x7gonIQyWj_EVGw-106" value="" style="shape=table;startSize=0;container=1;collapsible=0;childLayout=tableLayout;" parent="1" vertex="1">
          <mxGeometry x="299.48" y="1220" width="275" height="40" as="geometry" />
        </mxCell>
        <mxCell id="tJPU9x7gonIQyWj_EVGw-107" value="" style="shape=tableRow;horizontal=0;startSize=0;swimlaneHead=0;swimlaneBody=0;strokeColor=inherit;top=0;left=0;bottom=0;right=0;collapsible=0;dropTarget=0;fillColor=none;points=[[0,0.5],[1,0.5]];portConstraint=eastwest;" parent="tJPU9x7gonIQyWj_EVGw-106" vertex="1">
          <mxGeometry width="275" height="40" as="geometry" />
        </mxCell>
        <mxCell id="tJPU9x7gonIQyWj_EVGw-108" value="Book_Id" style="shape=partialRectangle;html=1;whiteSpace=wrap;connectable=0;strokeColor=inherit;overflow=hidden;fillColor=none;top=0;left=0;bottom=0;right=0;pointerEvents=1;" parent="tJPU9x7gonIQyWj_EVGw-107" vertex="1">
          <mxGeometry width="85" height="40" as="geometry">
            <mxRectangle width="85" height="40" as="alternateBounds" />
          </mxGeometry>
        </mxCell>
        <mxCell id="tJPU9x7gonIQyWj_EVGw-109" value="SSN" style="shape=partialRectangle;html=1;whiteSpace=wrap;connectable=0;strokeColor=inherit;overflow=hidden;fillColor=none;top=0;left=0;bottom=0;right=0;pointerEvents=1;" parent="tJPU9x7gonIQyWj_EVGw-107" vertex="1">
          <mxGeometry x="85" width="100" height="40" as="geometry">
            <mxRectangle width="100" height="40" as="alternateBounds" />
          </mxGeometry>
        </mxCell>
        <mxCell id="tJPU9x7gonIQyWj_EVGw-110" value="Date_Borrowed" style="shape=partialRectangle;html=1;whiteSpace=wrap;connectable=0;strokeColor=inherit;overflow=hidden;fillColor=none;top=0;left=0;bottom=0;right=0;pointerEvents=1;" parent="tJPU9x7gonIQyWj_EVGw-107" vertex="1">
          <mxGeometry x="185" width="90" height="40" as="geometry">
            <mxRectangle width="90" height="40" as="alternateBounds" />
          </mxGeometry>
        </mxCell>
        <mxCell id="tJPU9x7gonIQyWj_EVGw-111" value="" style="endArrow=none;dashed=1;html=1;dashPattern=1 3;strokeWidth=2;rounded=0;" parent="1" edge="1">
          <mxGeometry width="50" height="50" relative="1" as="geometry">
            <mxPoint x="307.48" y="1251" as="sourcePoint" />
            <mxPoint x="377.48" y="1251" as="targetPoint" />
          </mxGeometry>
        </mxCell>
        <mxCell id="tJPU9x7gonIQyWj_EVGw-112" value="" style="endArrow=none;dashed=1;html=1;dashPattern=1 3;strokeWidth=2;rounded=0;" parent="1" edge="1">
          <mxGeometry width="50" height="50" relative="1" as="geometry">
            <mxPoint x="401.98" y="1250" as="sourcePoint" />
            <mxPoint x="471.98" y="1250" as="targetPoint" />
          </mxGeometry>
        </mxCell>
        <mxCell id="tJPU9x7gonIQyWj_EVGw-114" value="" style="shape=table;startSize=0;container=1;collapsible=0;childLayout=tableLayout;" parent="1" vertex="1">
          <mxGeometry x="574.48" y="1220" width="70" height="40" as="geometry" />
        </mxCell>
        <mxCell id="tJPU9x7gonIQyWj_EVGw-115" value="" style="shape=tableRow;horizontal=0;startSize=0;swimlaneHead=0;swimlaneBody=0;strokeColor=inherit;top=0;left=0;bottom=0;right=0;collapsible=0;dropTarget=0;fillColor=none;points=[[0,0.5],[1,0.5]];portConstraint=eastwest;" parent="tJPU9x7gonIQyWj_EVGw-114" vertex="1">
          <mxGeometry width="70" height="40" as="geometry" />
        </mxCell>
        <mxCell id="tJPU9x7gonIQyWj_EVGw-116" value="Due_Date" style="shape=partialRectangle;html=1;whiteSpace=wrap;connectable=0;strokeColor=inherit;overflow=hidden;fillColor=none;top=0;left=0;bottom=0;right=0;pointerEvents=1;" parent="tJPU9x7gonIQyWj_EVGw-115" vertex="1">
          <mxGeometry width="70" height="40" as="geometry">
            <mxRectangle width="70" height="40" as="alternateBounds" />
          </mxGeometry>
        </mxCell>
        <mxCell id="tJPU9x7gonIQyWj_EVGw-117" value="" style="shape=table;startSize=0;container=1;collapsible=0;childLayout=tableLayout;" parent="1" vertex="1">
          <mxGeometry x="644.48" y="1220" width="155.04" height="40" as="geometry" />
        </mxCell>
        <mxCell id="tJPU9x7gonIQyWj_EVGw-118" value="" style="shape=tableRow;horizontal=0;startSize=0;swimlaneHead=0;swimlaneBody=0;strokeColor=inherit;top=0;left=0;bottom=0;right=0;collapsible=0;dropTarget=0;fillColor=none;points=[[0,0.5],[1,0.5]];portConstraint=eastwest;" parent="tJPU9x7gonIQyWj_EVGw-117" vertex="1">
          <mxGeometry width="155.04" height="40" as="geometry" />
        </mxCell>
        <mxCell id="tJPU9x7gonIQyWj_EVGw-119" value="Amount_Paid" style="shape=partialRectangle;html=1;whiteSpace=wrap;connectable=0;strokeColor=inherit;overflow=hidden;fillColor=none;top=0;left=0;bottom=0;right=0;pointerEvents=1;" parent="tJPU9x7gonIQyWj_EVGw-118" vertex="1">
          <mxGeometry width="99" height="40" as="geometry">
            <mxRectangle width="99" height="40" as="alternateBounds" />
          </mxGeometry>
        </mxCell>
        <mxCell id="tJPU9x7gonIQyWj_EVGw-120" value="Emp_Id" style="shape=partialRectangle;html=1;whiteSpace=wrap;connectable=0;strokeColor=inherit;overflow=hidden;fillColor=none;top=0;left=0;bottom=0;right=0;pointerEvents=1;" parent="tJPU9x7gonIQyWj_EVGw-118" vertex="1">
          <mxGeometry x="99" width="56" height="40" as="geometry">
            <mxRectangle width="56" height="40" as="alternateBounds" />
          </mxGeometry>
        </mxCell>
        <mxCell id="tJPU9x7gonIQyWj_EVGw-130" value="&lt;h2 style=&quot;text-wrap: wrap;&quot;&gt;Author  &lt;/h2&gt;" style="text;html=1;align=center;verticalAlign=middle;resizable=0;points=[];autosize=1;strokeColor=none;fillColor=none;" parent="1" vertex="1">
          <mxGeometry x="290" y="1300" width="80" height="60" as="geometry" />
        </mxCell>
        <mxCell id="tJPU9x7gonIQyWj_EVGw-132" value="" style="shape=table;startSize=0;container=1;collapsible=0;childLayout=tableLayout;" parent="1" vertex="1">
          <mxGeometry x="300" y="1430" width="145" height="40" as="geometry" />
        </mxCell>
        <mxCell id="tJPU9x7gonIQyWj_EVGw-133" value="" style="shape=tableRow;horizontal=0;startSize=0;swimlaneHead=0;swimlaneBody=0;strokeColor=inherit;top=0;left=0;bottom=0;right=0;collapsible=0;dropTarget=0;fillColor=none;points=[[0,0.5],[1,0.5]];portConstraint=eastwest;" parent="tJPU9x7gonIQyWj_EVGw-132" vertex="1">
          <mxGeometry width="145" height="40" as="geometry" />
        </mxCell>
        <mxCell id="tJPU9x7gonIQyWj_EVGw-134" value="Author_Id" style="shape=partialRectangle;html=1;whiteSpace=wrap;connectable=0;strokeColor=inherit;overflow=hidden;fillColor=none;top=0;left=0;bottom=0;right=0;pointerEvents=1;" parent="tJPU9x7gonIQyWj_EVGw-133" vertex="1">
          <mxGeometry width="85" height="40" as="geometry">
            <mxRectangle width="85" height="40" as="alternateBounds" />
          </mxGeometry>
        </mxCell>
        <mxCell id="tJPU9x7gonIQyWj_EVGw-135" value="Name" style="shape=partialRectangle;html=1;whiteSpace=wrap;connectable=0;strokeColor=inherit;overflow=hidden;fillColor=none;top=0;left=0;bottom=0;right=0;pointerEvents=1;" parent="tJPU9x7gonIQyWj_EVGw-133" vertex="1">
          <mxGeometry x="85" width="60" height="40" as="geometry">
            <mxRectangle width="60" height="40" as="alternateBounds" />
          </mxGeometry>
        </mxCell>
        <mxCell id="tJPU9x7gonIQyWj_EVGw-136" value="" style="endArrow=none;html=1;rounded=0;" parent="1" edge="1">
          <mxGeometry width="50" height="50" relative="1" as="geometry">
            <mxPoint x="313" y="1463" as="sourcePoint" />
            <mxPoint x="373" y="1463" as="targetPoint" />
          </mxGeometry>
        </mxCell>
        <mxCell id="tJPU9x7gonIQyWj_EVGw-149" value="" style="shape=table;startSize=0;container=1;collapsible=0;childLayout=tableLayout;" parent="1" vertex="1">
          <mxGeometry x="290" y="1640" width="195" height="40" as="geometry" />
        </mxCell>
        <mxCell id="tJPU9x7gonIQyWj_EVGw-150" value="" style="shape=tableRow;horizontal=0;startSize=0;swimlaneHead=0;swimlaneBody=0;strokeColor=inherit;top=0;left=0;bottom=0;right=0;collapsible=0;dropTarget=0;fillColor=none;points=[[0,0.5],[1,0.5]];portConstraint=eastwest;" parent="tJPU9x7gonIQyWj_EVGw-149" vertex="1">
          <mxGeometry width="195" height="40" as="geometry" />
        </mxCell>
        <mxCell id="tJPU9x7gonIQyWj_EVGw-151" value="Book_Id" style="shape=partialRectangle;html=1;whiteSpace=wrap;connectable=0;strokeColor=inherit;overflow=hidden;fillColor=none;top=0;left=0;bottom=0;right=0;pointerEvents=1;" parent="tJPU9x7gonIQyWj_EVGw-150" vertex="1">
          <mxGeometry width="105" height="40" as="geometry">
            <mxRectangle width="105" height="40" as="alternateBounds" />
          </mxGeometry>
        </mxCell>
        <mxCell id="tJPU9x7gonIQyWj_EVGw-152" value="Author_Id" style="shape=partialRectangle;html=1;whiteSpace=wrap;connectable=0;strokeColor=inherit;overflow=hidden;fillColor=none;top=0;left=0;bottom=0;right=0;pointerEvents=1;" parent="tJPU9x7gonIQyWj_EVGw-150" vertex="1">
          <mxGeometry x="105" width="90" height="40" as="geometry">
            <mxRectangle width="90" height="40" as="alternateBounds" />
          </mxGeometry>
        </mxCell>
        <mxCell id="tJPU9x7gonIQyWj_EVGw-153" value="&lt;h2 style=&quot;text-wrap: wrap;&quot;&gt;Book_Author  &lt;/h2&gt;" style="text;html=1;align=center;verticalAlign=middle;resizable=0;points=[];autosize=1;strokeColor=none;fillColor=none;" parent="1" vertex="1">
          <mxGeometry x="290" y="1510" width="140" height="60" as="geometry" />
        </mxCell>
        <mxCell id="tJPU9x7gonIQyWj_EVGw-154" value="" style="endArrow=none;dashed=1;html=1;dashPattern=1 3;strokeWidth=2;rounded=0;" parent="1" edge="1">
          <mxGeometry width="50" height="50" relative="1" as="geometry">
            <mxPoint x="310" y="1670" as="sourcePoint" />
            <mxPoint x="380" y="1670" as="targetPoint" />
          </mxGeometry>
        </mxCell>
        <mxCell id="tJPU9x7gonIQyWj_EVGw-155" value="" style="endArrow=none;dashed=1;html=1;dashPattern=1 3;strokeWidth=2;rounded=0;" parent="1" edge="1">
          <mxGeometry width="50" height="50" relative="1" as="geometry">
            <mxPoint x="407.5" y="1670" as="sourcePoint" />
            <mxPoint x="477.5" y="1670" as="targetPoint" />
          </mxGeometry>
        </mxCell>
        <mxCell id="tJPU9x7gonIQyWj_EVGw-164" value="" style="shape=table;startSize=0;container=1;collapsible=0;childLayout=tableLayout;" parent="1" vertex="1">
          <mxGeometry x="287.5" y="2060" width="195" height="40" as="geometry" />
        </mxCell>
        <mxCell id="tJPU9x7gonIQyWj_EVGw-165" value="" style="shape=tableRow;horizontal=0;startSize=0;swimlaneHead=0;swimlaneBody=0;strokeColor=inherit;top=0;left=0;bottom=0;right=0;collapsible=0;dropTarget=0;fillColor=none;points=[[0,0.5],[1,0.5]];portConstraint=eastwest;" parent="tJPU9x7gonIQyWj_EVGw-164" vertex="1">
          <mxGeometry width="195" height="40" as="geometry" />
        </mxCell>
        <mxCell id="tJPU9x7gonIQyWj_EVGw-166" value="Category_Id" style="shape=partialRectangle;html=1;whiteSpace=wrap;connectable=0;strokeColor=inherit;overflow=hidden;fillColor=none;top=0;left=0;bottom=0;right=0;pointerEvents=1;" parent="tJPU9x7gonIQyWj_EVGw-165" vertex="1">
          <mxGeometry width="105" height="40" as="geometry">
            <mxRectangle width="105" height="40" as="alternateBounds" />
          </mxGeometry>
        </mxCell>
        <mxCell id="tJPU9x7gonIQyWj_EVGw-167" value="Cat_Name" style="shape=partialRectangle;html=1;whiteSpace=wrap;connectable=0;strokeColor=inherit;overflow=hidden;fillColor=none;top=0;left=0;bottom=0;right=0;pointerEvents=1;" parent="tJPU9x7gonIQyWj_EVGw-165" vertex="1">
          <mxGeometry x="105" width="90" height="40" as="geometry">
            <mxRectangle width="90" height="40" as="alternateBounds" />
          </mxGeometry>
        </mxCell>
        <mxCell id="tJPU9x7gonIQyWj_EVGw-168" value="&lt;h2 style=&quot;text-wrap: wrap;&quot;&gt; Category    &lt;/h2&gt;" style="text;html=1;align=center;verticalAlign=middle;resizable=0;points=[];autosize=1;strokeColor=none;fillColor=none;" parent="1" vertex="1">
          <mxGeometry x="307.5" y="1930" width="100" height="60" as="geometry" />
        </mxCell>
        <mxCell id="tJPU9x7gonIQyWj_EVGw-169" value="" style="endArrow=none;html=1;rounded=0;" parent="1" edge="1">
          <mxGeometry width="50" height="50" relative="1" as="geometry">
            <mxPoint x="307.5" y="2094" as="sourcePoint" />
            <mxPoint x="367.5" y="2094" as="targetPoint" />
          </mxGeometry>
        </mxCell>
        <mxCell id="tJPU9x7gonIQyWj_EVGw-170" value="" style="shape=table;startSize=0;container=1;collapsible=0;childLayout=tableLayout;" parent="1" vertex="1">
          <mxGeometry x="285" y="2260" width="195" height="40" as="geometry" />
        </mxCell>
        <mxCell id="tJPU9x7gonIQyWj_EVGw-171" value="" style="shape=tableRow;horizontal=0;startSize=0;swimlaneHead=0;swimlaneBody=0;strokeColor=inherit;top=0;left=0;bottom=0;right=0;collapsible=0;dropTarget=0;fillColor=none;points=[[0,0.5],[1,0.5]];portConstraint=eastwest;" parent="tJPU9x7gonIQyWj_EVGw-170" vertex="1">
          <mxGeometry width="195" height="40" as="geometry" />
        </mxCell>
        <mxCell id="tJPU9x7gonIQyWj_EVGw-172" value="Shelf_Code" style="shape=partialRectangle;html=1;whiteSpace=wrap;connectable=0;strokeColor=inherit;overflow=hidden;fillColor=none;top=0;left=0;bottom=0;right=0;pointerEvents=1;" parent="tJPU9x7gonIQyWj_EVGw-171" vertex="1">
          <mxGeometry width="105" height="40" as="geometry">
            <mxRectangle width="105" height="40" as="alternateBounds" />
          </mxGeometry>
        </mxCell>
        <mxCell id="tJPU9x7gonIQyWj_EVGw-173" value="Floor_Number" style="shape=partialRectangle;html=1;whiteSpace=wrap;connectable=0;strokeColor=inherit;overflow=hidden;fillColor=none;top=0;left=0;bottom=0;right=0;pointerEvents=1;" parent="tJPU9x7gonIQyWj_EVGw-171" vertex="1">
          <mxGeometry x="105" width="90" height="40" as="geometry">
            <mxRectangle width="90" height="40" as="alternateBounds" />
          </mxGeometry>
        </mxCell>
        <mxCell id="tJPU9x7gonIQyWj_EVGw-174" value="&lt;h2 style=&quot;text-wrap: wrap;&quot;&gt; Shelf    &lt;/h2&gt;" style="text;html=1;align=center;verticalAlign=middle;resizable=0;points=[];autosize=1;strokeColor=none;fillColor=none;" parent="1" vertex="1">
          <mxGeometry x="320" y="2130" width="70" height="60" as="geometry" />
        </mxCell>
        <mxCell id="tJPU9x7gonIQyWj_EVGw-175" value="" style="endArrow=none;html=1;rounded=0;" parent="1" edge="1">
          <mxGeometry width="50" height="50" relative="1" as="geometry">
            <mxPoint x="305" y="2294" as="sourcePoint" />
            <mxPoint x="365" y="2294" as="targetPoint" />
          </mxGeometry>
        </mxCell>
        <mxCell id="tJPU9x7gonIQyWj_EVGw-156" value="" style="shape=table;startSize=0;container=1;collapsible=0;childLayout=tableLayout;" parent="1" vertex="1">
          <mxGeometry x="270" y="1840" width="195" height="40" as="geometry" />
        </mxCell>
        <mxCell id="tJPU9x7gonIQyWj_EVGw-157" value="" style="shape=tableRow;horizontal=0;startSize=0;swimlaneHead=0;swimlaneBody=0;strokeColor=inherit;top=0;left=0;bottom=0;right=0;collapsible=0;dropTarget=0;fillColor=none;points=[[0,0.5],[1,0.5]];portConstraint=eastwest;" parent="tJPU9x7gonIQyWj_EVGw-156" vertex="1">
          <mxGeometry width="195" height="40" as="geometry" />
        </mxCell>
        <mxCell id="tJPU9x7gonIQyWj_EVGw-158" value="Publisher_Id" style="shape=partialRectangle;html=1;whiteSpace=wrap;connectable=0;strokeColor=inherit;overflow=hidden;fillColor=none;top=0;left=0;bottom=0;right=0;pointerEvents=1;" parent="tJPU9x7gonIQyWj_EVGw-157" vertex="1">
          <mxGeometry width="105" height="40" as="geometry">
            <mxRectangle width="105" height="40" as="alternateBounds" />
          </mxGeometry>
        </mxCell>
        <mxCell id="tJPU9x7gonIQyWj_EVGw-159" value="Name" style="shape=partialRectangle;html=1;whiteSpace=wrap;connectable=0;strokeColor=inherit;overflow=hidden;fillColor=none;top=0;left=0;bottom=0;right=0;pointerEvents=1;" parent="tJPU9x7gonIQyWj_EVGw-157" vertex="1">
          <mxGeometry x="105" width="90" height="40" as="geometry">
            <mxRectangle width="90" height="40" as="alternateBounds" />
          </mxGeometry>
        </mxCell>
        <mxCell id="tJPU9x7gonIQyWj_EVGw-160" value="&lt;h2 style=&quot;text-wrap: wrap;&quot;&gt; Publisher   &lt;/h2&gt;" style="text;html=1;align=center;verticalAlign=middle;resizable=0;points=[];autosize=1;strokeColor=none;fillColor=none;" parent="1" vertex="1">
          <mxGeometry x="285" y="1710" width="110" height="60" as="geometry" />
        </mxCell>
        <mxCell id="tJPU9x7gonIQyWj_EVGw-163" value="" style="endArrow=none;html=1;rounded=0;" parent="1" edge="1">
          <mxGeometry width="50" height="50" relative="1" as="geometry">
            <mxPoint x="290" y="1874" as="sourcePoint" />
            <mxPoint x="350" y="1874" as="targetPoint" />
          </mxGeometry>
        </mxCell>
        <mxCell id="tJPU9x7gonIQyWj_EVGw-185" style="edgeStyle=orthogonalEdgeStyle;rounded=0;orthogonalLoop=1;jettySize=auto;html=1;exitX=0;exitY=0.5;exitDx=0;exitDy=0;entryX=0.857;entryY=1.055;entryDx=0;entryDy=0;entryPerimeter=0;" parent="1" source="tJPU9x7gonIQyWj_EVGw-107" target="tJPU9x7gonIQyWj_EVGw-95" edge="1">
          <mxGeometry relative="1" as="geometry">
            <Array as="points">
              <mxPoint x="279" y="1240" />
              <mxPoint x="279" y="1030" />
              <mxPoint x="536" y="1030" />
            </Array>
          </mxGeometry>
        </mxCell>
        <mxCell id="tJPU9x7gonIQyWj_EVGw-186" style="edgeStyle=orthogonalEdgeStyle;rounded=0;orthogonalLoop=1;jettySize=auto;html=1;" parent="1" edge="1" source="tJPU9x7gonIQyWj_EVGw-118">
          <mxGeometry relative="1" as="geometry">
            <mxPoint x="790" y="1440" as="sourcePoint" />
            <mxPoint x="290" y="135" as="targetPoint" />
            <Array as="points">
              <mxPoint x="1090" y="1248" />
              <mxPoint x="1090" y="90" />
              <mxPoint x="290" y="90" />
              <mxPoint x="290" y="135" />
            </Array>
          </mxGeometry>
        </mxCell>
        <mxCell id="tJPU9x7gonIQyWj_EVGw-188" value="" style="endArrow=classic;html=1;rounded=0;entryX=-0.125;entryY=0.725;entryDx=0;entryDy=0;entryPerimeter=0;" parent="1" target="j-Yj_T3Q55BayFIlYUzS-52" edge="1">
          <mxGeometry width="50" height="50" relative="1" as="geometry">
            <mxPoint x="440" y="1220" as="sourcePoint" />
            <mxPoint x="250" y="599" as="targetPoint" />
            <Array as="points">
              <mxPoint x="440" y="1160" />
              <mxPoint x="430" y="1160" />
              <mxPoint x="330" y="1160" />
              <mxPoint x="140" y="1160" />
              <mxPoint x="140" y="940" />
              <mxPoint x="140" y="810" />
              <mxPoint x="140" y="730" />
              <mxPoint x="140" y="700" />
              <mxPoint x="140" y="600" />
              <mxPoint x="220" y="600" />
            </Array>
          </mxGeometry>
        </mxCell>
        <mxCell id="tJPU9x7gonIQyWj_EVGw-189" style="edgeStyle=orthogonalEdgeStyle;rounded=0;orthogonalLoop=1;jettySize=auto;html=1;exitX=1;exitY=0.5;exitDx=0;exitDy=0;entryX=0.291;entryY=-0.045;entryDx=0;entryDy=0;entryPerimeter=0;" parent="1" source="tJPU9x7gonIQyWj_EVGw-150" target="tJPU9x7gonIQyWj_EVGw-133" edge="1">
          <mxGeometry relative="1" as="geometry">
            <Array as="points">
              <mxPoint x="505" y="1660" />
              <mxPoint x="505" y="1400" />
              <mxPoint x="342" y="1400" />
            </Array>
          </mxGeometry>
        </mxCell>
        <mxCell id="tJPU9x7gonIQyWj_EVGw-190" style="edgeStyle=orthogonalEdgeStyle;rounded=0;orthogonalLoop=1;jettySize=auto;html=1;exitX=0;exitY=0.5;exitDx=0;exitDy=0;entryX=0.951;entryY=-0.045;entryDx=0;entryDy=0;entryPerimeter=0;" parent="1" source="tJPU9x7gonIQyWj_EVGw-150" target="tJPU9x7gonIQyWj_EVGw-95" edge="1">
          <mxGeometry relative="1" as="geometry">
            <Array as="points">
              <mxPoint x="210" y="1660" />
              <mxPoint x="210" y="830" />
              <mxPoint x="561" y="830" />
            </Array>
          </mxGeometry>
        </mxCell>
        <mxCell id="tJPU9x7gonIQyWj_EVGw-191" value="" style="endArrow=none;dashed=1;html=1;dashPattern=1 3;strokeWidth=2;rounded=0;" parent="1" edge="1">
          <mxGeometry width="50" height="50" relative="1" as="geometry">
            <mxPoint x="405" y="2292" as="sourcePoint" />
            <mxPoint x="455" y="2292" as="targetPoint" />
          </mxGeometry>
        </mxCell>
        <mxCell id="tJPU9x7gonIQyWj_EVGw-192" style="edgeStyle=orthogonalEdgeStyle;rounded=0;orthogonalLoop=1;jettySize=auto;html=1;exitX=1;exitY=0.5;exitDx=0;exitDy=0;entryX=0.482;entryY=-0.045;entryDx=0;entryDy=0;entryPerimeter=0;" parent="1" source="tJPU9x7gonIQyWj_EVGw-171" target="tJPU9x7gonIQyWj_EVGw-52" edge="1">
          <mxGeometry relative="1" as="geometry">
            <mxPoint x="824.97" y="2619.96" as="sourcePoint" />
            <mxPoint x="700" y="409.96" as="targetPoint" />
            <Array as="points">
              <mxPoint x="845" y="2280" />
              <mxPoint x="845" y="360" />
              <mxPoint x="323" y="360" />
            </Array>
          </mxGeometry>
        </mxCell>
        <mxCell id="tJPU9x7gonIQyWj_EVGw-195" style="edgeStyle=orthogonalEdgeStyle;rounded=0;orthogonalLoop=1;jettySize=auto;html=1;exitX=0.485;exitY=-0.005;exitDx=0;exitDy=0;exitPerimeter=0;entryX=0.313;entryY=-0.075;entryDx=0;entryDy=0;entryPerimeter=0;" parent="1" source="tJPU9x7gonIQyWj_EVGw-95" target="tJPU9x7gonIQyWj_EVGw-157" edge="1">
          <mxGeometry relative="1" as="geometry">
            <Array as="points">
              <mxPoint x="433" y="850" />
              <mxPoint x="970" y="850" />
              <mxPoint x="970" y="1810" />
              <mxPoint x="331" y="1810" />
            </Array>
            <mxPoint x="350" y="1830" as="targetPoint" />
          </mxGeometry>
        </mxCell>
        <mxCell id="j-Yj_T3Q55BayFIlYUzS-1" value="" style="shape=table;startSize=0;container=1;collapsible=0;childLayout=tableLayout;" vertex="1" parent="1">
          <mxGeometry x="537.5" y="570" width="60" height="40" as="geometry" />
        </mxCell>
        <mxCell id="j-Yj_T3Q55BayFIlYUzS-2" value="" style="shape=tableRow;horizontal=0;startSize=0;swimlaneHead=0;swimlaneBody=0;strokeColor=inherit;top=0;left=0;bottom=0;right=0;collapsible=0;dropTarget=0;fillColor=none;points=[[0,0.5],[1,0.5]];portConstraint=eastwest;" vertex="1" parent="j-Yj_T3Q55BayFIlYUzS-1">
          <mxGeometry width="60" height="40" as="geometry" />
        </mxCell>
        <mxCell id="j-Yj_T3Q55BayFIlYUzS-3" value="Emp_Id" style="shape=partialRectangle;html=1;whiteSpace=wrap;connectable=0;strokeColor=inherit;overflow=hidden;fillColor=none;top=0;left=0;bottom=0;right=0;pointerEvents=1;" vertex="1" parent="j-Yj_T3Q55BayFIlYUzS-2">
          <mxGeometry width="60" height="40" as="geometry">
            <mxRectangle width="60" height="40" as="alternateBounds" />
          </mxGeometry>
        </mxCell>
        <mxCell id="j-Yj_T3Q55BayFIlYUzS-4" value="" style="endArrow=none;dashed=1;html=1;dashPattern=1 3;strokeWidth=2;rounded=0;" edge="1" parent="1">
          <mxGeometry width="50" height="50" relative="1" as="geometry">
            <mxPoint x="544.5" y="605" as="sourcePoint" />
            <mxPoint x="594.5" y="605" as="targetPoint" />
          </mxGeometry>
        </mxCell>
        <mxCell id="j-Yj_T3Q55BayFIlYUzS-5" style="edgeStyle=orthogonalEdgeStyle;rounded=0;orthogonalLoop=1;jettySize=auto;html=1;exitX=1;exitY=0.5;exitDx=0;exitDy=0;entryX=0;entryY=0.5;entryDx=0;entryDy=0;" edge="1" parent="1" source="j-Yj_T3Q55BayFIlYUzS-2" target="tJPU9x7gonIQyWj_EVGw-7">
          <mxGeometry relative="1" as="geometry">
            <Array as="points">
              <mxPoint x="670" y="600" />
              <mxPoint x="670" y="529" />
              <mxPoint x="220" y="529" />
              <mxPoint x="220" y="157" />
            </Array>
          </mxGeometry>
        </mxCell>
        <mxCell id="j-Yj_T3Q55BayFIlYUzS-23" value="" style="shape=table;startSize=0;container=1;collapsible=0;childLayout=tableLayout;" vertex="1" parent="1">
          <mxGeometry x="465" y="390" width="65" height="40" as="geometry" />
        </mxCell>
        <mxCell id="j-Yj_T3Q55BayFIlYUzS-24" value="" style="shape=tableRow;horizontal=0;startSize=0;swimlaneHead=0;swimlaneBody=0;strokeColor=inherit;top=0;left=0;bottom=0;right=0;collapsible=0;dropTarget=0;fillColor=none;points=[[0,0.5],[1,0.5]];portConstraint=eastwest;" vertex="1" parent="j-Yj_T3Q55BayFIlYUzS-23">
          <mxGeometry width="65" height="40" as="geometry" />
        </mxCell>
        <mxCell id="j-Yj_T3Q55BayFIlYUzS-25" value="Emp_Id" style="shape=partialRectangle;html=1;whiteSpace=wrap;connectable=0;strokeColor=inherit;overflow=hidden;fillColor=none;top=0;left=0;bottom=0;right=0;pointerEvents=1;" vertex="1" parent="j-Yj_T3Q55BayFIlYUzS-24">
          <mxGeometry width="65" height="40" as="geometry">
            <mxRectangle width="65" height="40" as="alternateBounds" />
          </mxGeometry>
        </mxCell>
        <mxCell id="j-Yj_T3Q55BayFIlYUzS-26" value="" style="endArrow=none;html=1;rounded=0;" edge="1" parent="1">
          <mxGeometry width="50" height="50" relative="1" as="geometry">
            <mxPoint x="472.5" y="423.17" as="sourcePoint" />
            <mxPoint x="522.5" y="423.17" as="targetPoint" />
          </mxGeometry>
        </mxCell>
        <mxCell id="j-Yj_T3Q55BayFIlYUzS-27" value="" style="shape=table;startSize=0;container=1;collapsible=0;childLayout=tableLayout;" vertex="1" parent="1">
          <mxGeometry x="530" y="390" width="60" height="40" as="geometry" />
        </mxCell>
        <mxCell id="j-Yj_T3Q55BayFIlYUzS-28" value="" style="shape=tableRow;horizontal=0;startSize=0;swimlaneHead=0;swimlaneBody=0;strokeColor=inherit;top=0;left=0;bottom=0;right=0;collapsible=0;dropTarget=0;fillColor=none;points=[[0,0.5],[1,0.5]];portConstraint=eastwest;" vertex="1" parent="j-Yj_T3Q55BayFIlYUzS-27">
          <mxGeometry width="60" height="40" as="geometry" />
        </mxCell>
        <mxCell id="j-Yj_T3Q55BayFIlYUzS-29" value="HireDate" style="shape=partialRectangle;html=1;whiteSpace=wrap;connectable=0;strokeColor=inherit;overflow=hidden;fillColor=none;top=0;left=0;bottom=0;right=0;pointerEvents=1;" vertex="1" parent="j-Yj_T3Q55BayFIlYUzS-28">
          <mxGeometry width="60" height="40" as="geometry">
            <mxRectangle width="60" height="40" as="alternateBounds" />
          </mxGeometry>
        </mxCell>
        <mxCell id="j-Yj_T3Q55BayFIlYUzS-30" value="" style="endArrow=classic;html=1;rounded=0;entryX=0.178;entryY=0.979;entryDx=0;entryDy=0;entryPerimeter=0;" edge="1" parent="1" target="tJPU9x7gonIQyWj_EVGw-7">
          <mxGeometry width="50" height="50" relative="1" as="geometry">
            <mxPoint x="490" y="390" as="sourcePoint" />
            <mxPoint x="540" y="340" as="targetPoint" />
            <Array as="points">
              <mxPoint x="490" y="280" />
              <mxPoint x="400" y="280" />
              <mxPoint x="320" y="280" />
              <mxPoint x="320" y="230" />
              <mxPoint x="320" y="210" />
            </Array>
          </mxGeometry>
        </mxCell>
        <mxCell id="j-Yj_T3Q55BayFIlYUzS-31" style="edgeStyle=orthogonalEdgeStyle;rounded=0;orthogonalLoop=1;jettySize=auto;html=1;exitX=0;exitY=0.5;exitDx=0;exitDy=0;entryX=-0.004;entryY=0.758;entryDx=0;entryDy=0;entryPerimeter=0;" edge="1" parent="1" source="tJPU9x7gonIQyWj_EVGw-95" target="tJPU9x7gonIQyWj_EVGw-165">
          <mxGeometry relative="1" as="geometry">
            <Array as="points">
              <mxPoint x="170" y="930" />
              <mxPoint x="170" y="2090" />
            </Array>
          </mxGeometry>
        </mxCell>
        <mxCell id="j-Yj_T3Q55BayFIlYUzS-32" value="&lt;h2 style=&quot;text-wrap: wrap;&quot;&gt;Userphone&lt;/h2&gt;" style="text;html=1;align=center;verticalAlign=middle;resizable=0;points=[];autosize=1;strokeColor=none;fillColor=none;" vertex="1" parent="1">
          <mxGeometry x="360" y="643" width="120" height="60" as="geometry" />
        </mxCell>
        <mxCell id="j-Yj_T3Q55BayFIlYUzS-40" value="" style="shape=table;startSize=0;container=1;collapsible=0;childLayout=tableLayout;" vertex="1" parent="1">
          <mxGeometry x="357.5" y="570" width="180" height="40" as="geometry" />
        </mxCell>
        <mxCell id="j-Yj_T3Q55BayFIlYUzS-41" value="" style="shape=tableRow;horizontal=0;startSize=0;swimlaneHead=0;swimlaneBody=0;strokeColor=inherit;top=0;left=0;bottom=0;right=0;collapsible=0;dropTarget=0;fillColor=none;points=[[0,0.5],[1,0.5]];portConstraint=eastwest;" vertex="1" parent="j-Yj_T3Q55BayFIlYUzS-40">
          <mxGeometry width="180" height="40" as="geometry" />
        </mxCell>
        <mxCell id="j-Yj_T3Q55BayFIlYUzS-42" value="Fname" style="shape=partialRectangle;html=1;whiteSpace=wrap;connectable=0;strokeColor=inherit;overflow=hidden;fillColor=none;top=0;left=0;bottom=0;right=0;pointerEvents=1;" vertex="1" parent="j-Yj_T3Q55BayFIlYUzS-41">
          <mxGeometry width="60" height="40" as="geometry">
            <mxRectangle width="60" height="40" as="alternateBounds" />
          </mxGeometry>
        </mxCell>
        <mxCell id="j-Yj_T3Q55BayFIlYUzS-43" value="Lname" style="shape=partialRectangle;html=1;whiteSpace=wrap;connectable=0;strokeColor=inherit;overflow=hidden;fillColor=none;top=0;left=0;bottom=0;right=0;pointerEvents=1;" vertex="1" parent="j-Yj_T3Q55BayFIlYUzS-41">
          <mxGeometry x="60" width="60" height="40" as="geometry">
            <mxRectangle width="60" height="40" as="alternateBounds" />
          </mxGeometry>
        </mxCell>
        <mxCell id="j-Yj_T3Q55BayFIlYUzS-44" value="Email" style="shape=partialRectangle;html=1;whiteSpace=wrap;connectable=0;strokeColor=inherit;overflow=hidden;fillColor=none;top=0;left=0;bottom=0;right=0;pointerEvents=1;" vertex="1" parent="j-Yj_T3Q55BayFIlYUzS-41">
          <mxGeometry x="120" width="60" height="40" as="geometry">
            <mxRectangle width="60" height="40" as="alternateBounds" />
          </mxGeometry>
        </mxCell>
        <mxCell id="j-Yj_T3Q55BayFIlYUzS-45" value="" style="shape=table;startSize=0;container=1;collapsible=0;childLayout=tableLayout;" vertex="1" parent="1">
          <mxGeometry x="370" y="720" width="120" height="40" as="geometry" />
        </mxCell>
        <mxCell id="j-Yj_T3Q55BayFIlYUzS-46" value="" style="shape=tableRow;horizontal=0;startSize=0;swimlaneHead=0;swimlaneBody=0;strokeColor=inherit;top=0;left=0;bottom=0;right=0;collapsible=0;dropTarget=0;fillColor=none;points=[[0,0.5],[1,0.5]];portConstraint=eastwest;" vertex="1" parent="j-Yj_T3Q55BayFIlYUzS-45">
          <mxGeometry width="120" height="40" as="geometry" />
        </mxCell>
        <mxCell id="j-Yj_T3Q55BayFIlYUzS-47" value="SSN" style="shape=partialRectangle;html=1;whiteSpace=wrap;connectable=0;strokeColor=inherit;overflow=hidden;fillColor=none;top=0;left=0;bottom=0;right=0;pointerEvents=1;" vertex="1" parent="j-Yj_T3Q55BayFIlYUzS-46">
          <mxGeometry width="60" height="40" as="geometry">
            <mxRectangle width="60" height="40" as="alternateBounds" />
          </mxGeometry>
        </mxCell>
        <mxCell id="j-Yj_T3Q55BayFIlYUzS-48" value="Phone" style="shape=partialRectangle;html=1;whiteSpace=wrap;connectable=0;strokeColor=inherit;overflow=hidden;fillColor=none;top=0;left=0;bottom=0;right=0;pointerEvents=1;" vertex="1" parent="j-Yj_T3Q55BayFIlYUzS-46">
          <mxGeometry x="60" width="60" height="40" as="geometry">
            <mxRectangle width="60" height="40" as="alternateBounds" />
          </mxGeometry>
        </mxCell>
        <mxCell id="j-Yj_T3Q55BayFIlYUzS-49" value="" style="endArrow=none;html=1;rounded=0;" edge="1" parent="1">
          <mxGeometry width="50" height="50" relative="1" as="geometry">
            <mxPoint x="377.5" y="753" as="sourcePoint" />
            <mxPoint x="427.5" y="753" as="targetPoint" />
          </mxGeometry>
        </mxCell>
        <mxCell id="j-Yj_T3Q55BayFIlYUzS-50" value="" style="endArrow=none;html=1;rounded=0;" edge="1" parent="1">
          <mxGeometry width="50" height="50" relative="1" as="geometry">
            <mxPoint x="435" y="751" as="sourcePoint" />
            <mxPoint x="485" y="751" as="targetPoint" />
          </mxGeometry>
        </mxCell>
        <mxCell id="j-Yj_T3Q55BayFIlYUzS-51" value="" style="shape=table;startSize=0;container=1;collapsible=0;childLayout=tableLayout;" vertex="1" parent="1">
          <mxGeometry x="297.5" y="570" width="60" height="40" as="geometry" />
        </mxCell>
        <mxCell id="j-Yj_T3Q55BayFIlYUzS-52" value="" style="shape=tableRow;horizontal=0;startSize=0;swimlaneHead=0;swimlaneBody=0;strokeColor=inherit;top=0;left=0;bottom=0;right=0;collapsible=0;dropTarget=0;fillColor=none;points=[[0,0.5],[1,0.5]];portConstraint=eastwest;" vertex="1" parent="j-Yj_T3Q55BayFIlYUzS-51">
          <mxGeometry width="60" height="40" as="geometry" />
        </mxCell>
        <mxCell id="j-Yj_T3Q55BayFIlYUzS-53" value="SSN" style="shape=partialRectangle;html=1;whiteSpace=wrap;connectable=0;strokeColor=inherit;overflow=hidden;fillColor=none;top=0;left=0;bottom=0;right=0;pointerEvents=1;" vertex="1" parent="j-Yj_T3Q55BayFIlYUzS-52">
          <mxGeometry width="60" height="40" as="geometry">
            <mxRectangle width="60" height="40" as="alternateBounds" />
          </mxGeometry>
        </mxCell>
        <mxCell id="j-Yj_T3Q55BayFIlYUzS-54" value="" style="endArrow=none;html=1;rounded=0;" edge="1" parent="1">
          <mxGeometry width="50" height="50" relative="1" as="geometry">
            <mxPoint x="307.5" y="600" as="sourcePoint" />
            <mxPoint x="347.5" y="600" as="targetPoint" />
          </mxGeometry>
        </mxCell>
        <mxCell id="j-Yj_T3Q55BayFIlYUzS-55" style="edgeStyle=orthogonalEdgeStyle;rounded=0;orthogonalLoop=1;jettySize=auto;html=1;exitX=0;exitY=0.5;exitDx=0;exitDy=0;entryX=0.225;entryY=0.975;entryDx=0;entryDy=0;entryPerimeter=0;" edge="1" parent="1" source="j-Yj_T3Q55BayFIlYUzS-46" target="j-Yj_T3Q55BayFIlYUzS-52">
          <mxGeometry relative="1" as="geometry" />
        </mxCell>
        <mxCell id="j-Yj_T3Q55BayFIlYUzS-56" value="" style="endArrow=none;dashed=1;html=1;dashPattern=1 3;strokeWidth=2;rounded=0;" edge="1" parent="1">
          <mxGeometry width="50" height="50" relative="1" as="geometry">
            <mxPoint x="747" y="1251" as="sourcePoint" />
            <mxPoint x="796.52" y="1251" as="targetPoint" />
          </mxGeometry>
        </mxCell>
        <mxCell id="j-Yj_T3Q55BayFIlYUzS-57" value="" style="endArrow=none;html=1;rounded=0;" edge="1" parent="1">
          <mxGeometry width="50" height="50" relative="1" as="geometry">
            <mxPoint x="408.5" y="1256" as="sourcePoint" />
            <mxPoint x="458.5" y="1256" as="targetPoint" />
          </mxGeometry>
        </mxCell>
        <mxCell id="j-Yj_T3Q55BayFIlYUzS-58" value="" style="endArrow=none;html=1;rounded=0;" edge="1" parent="1">
          <mxGeometry width="50" height="50" relative="1" as="geometry">
            <mxPoint x="315.5" y="1256" as="sourcePoint" />
            <mxPoint x="365.5" y="1256" as="targetPoint" />
          </mxGeometry>
        </mxCell>
        <mxCell id="j-Yj_T3Q55BayFIlYUzS-60" value="" style="endArrow=classic;html=1;rounded=0;entryX=0.208;entryY=-0.175;entryDx=0;entryDy=0;entryPerimeter=0;" edge="1" parent="1" target="tJPU9x7gonIQyWj_EVGw-7">
          <mxGeometry width="50" height="50" relative="1" as="geometry">
            <mxPoint x="830" y="140" as="sourcePoint" />
            <mxPoint x="880" y="90" as="targetPoint" />
            <Array as="points">
              <mxPoint x="830" y="10" />
              <mxPoint x="600" y="10" />
              <mxPoint x="330" y="10" />
            </Array>
          </mxGeometry>
        </mxCell>
        <mxCell id="j-Yj_T3Q55BayFIlYUzS-61" value="" style="shape=table;startSize=0;container=1;collapsible=0;childLayout=tableLayout;" vertex="1" parent="1">
          <mxGeometry x="635" y="910" width="75" height="40" as="geometry" />
        </mxCell>
        <mxCell id="j-Yj_T3Q55BayFIlYUzS-62" value="" style="shape=tableRow;horizontal=0;startSize=0;swimlaneHead=0;swimlaneBody=0;strokeColor=inherit;top=0;left=0;bottom=0;right=0;collapsible=0;dropTarget=0;fillColor=none;points=[[0,0.5],[1,0.5]];portConstraint=eastwest;" vertex="1" parent="j-Yj_T3Q55BayFIlYUzS-61">
          <mxGeometry width="75" height="40" as="geometry" />
        </mxCell>
        <mxCell id="j-Yj_T3Q55BayFIlYUzS-63" value="Shelf_Code" style="shape=partialRectangle;html=1;whiteSpace=wrap;connectable=0;strokeColor=inherit;overflow=hidden;fillColor=none;top=0;left=0;bottom=0;right=0;pointerEvents=1;" vertex="1" parent="j-Yj_T3Q55BayFIlYUzS-62">
          <mxGeometry width="75" height="40" as="geometry">
            <mxRectangle width="75" height="40" as="alternateBounds" />
          </mxGeometry>
        </mxCell>
        <mxCell id="j-Yj_T3Q55BayFIlYUzS-64" value="" style="endArrow=none;dashed=1;html=1;dashPattern=1 3;strokeWidth=2;rounded=0;" edge="1" parent="1">
          <mxGeometry width="50" height="50" relative="1" as="geometry">
            <mxPoint x="652.5" y="945.17" as="sourcePoint" />
            <mxPoint x="692.5" y="945.17" as="targetPoint" />
          </mxGeometry>
        </mxCell>
        <mxCell id="j-Yj_T3Q55BayFIlYUzS-65" style="edgeStyle=orthogonalEdgeStyle;rounded=0;orthogonalLoop=1;jettySize=auto;html=1;entryX=1;entryY=0.5;entryDx=0;entryDy=0;" edge="1" parent="1" target="j-Yj_T3Q55BayFIlYUzS-62">
          <mxGeometry relative="1" as="geometry">
            <mxPoint x="320" y="2305" as="sourcePoint" />
            <Array as="points">
              <mxPoint x="320" y="2305" />
              <mxPoint x="320" y="2360" />
              <mxPoint x="1040" y="2360" />
              <mxPoint x="1040" y="930" />
            </Array>
          </mxGeometry>
        </mxCell>
        <mxCell id="j-Yj_T3Q55BayFIlYUzS-66" value="" style="endArrow=none;html=1;rounded=0;" edge="1" parent="1">
          <mxGeometry width="50" height="50" relative="1" as="geometry">
            <mxPoint x="500" y="1252" as="sourcePoint" />
            <mxPoint x="550" y="1252" as="targetPoint" />
          </mxGeometry>
        </mxCell>
        <mxCell id="j-Yj_T3Q55BayFIlYUzS-67" value="" style="endArrow=none;html=1;rounded=0;" edge="1" parent="1">
          <mxGeometry width="50" height="50" relative="1" as="geometry">
            <mxPoint x="416.98" y="1676" as="sourcePoint" />
            <mxPoint x="456.98" y="1676" as="targetPoint" />
          </mxGeometry>
        </mxCell>
        <mxCell id="j-Yj_T3Q55BayFIlYUzS-68" value="" style="endArrow=none;html=1;rounded=0;" edge="1" parent="1">
          <mxGeometry width="50" height="50" relative="1" as="geometry">
            <mxPoint x="321.5" y="1676" as="sourcePoint" />
            <mxPoint x="361.5" y="1676" as="targetPoint" />
          </mxGeometry>
        </mxCell>
      </root>
    </mxGraphModel>
  </diagram>
</mxfile>
